<svg xmlns="http://www.w3.org/2000/svg" width="16" height="17" viewBox="0 0 16 17" fill="none">
<path d="M12.25 8.99265L7.12135 14.1213C6.55874 14.6839 5.79567 15 5.00002 15C4.20436 15 3.4413 14.6839 2.87869 14.1213C2.31607 13.5587 2 12.7956 2 12C2 11.2043 2.31607 10.4413 2.87869 9.87865L10.172 2.58532C10.3578 2.39963 10.5783 2.25235 10.821 2.15189C11.0637 2.05143 11.3238 1.99976 11.5865 1.99982C11.8492 1.99988 12.1092 2.05168 12.3519 2.15225C12.5945 2.25283 12.815 2.40021 13.0007 2.58599C13.1864 2.77176 13.3337 2.99229 13.4341 3.23499C13.5346 3.47769 13.5863 3.73779 13.5862 4.00046C13.5861 4.26312 13.5343 4.52321 13.4338 4.76585C13.3332 5.0085 13.1858 5.22896 13 5.41465L5.70135 12.7133C5.51201 12.8948 5.25893 12.994 4.99665 12.9907C4.73437 12.9874 4.4839 12.8811 4.29922 12.6949C4.11453 12.5086 4.01042 12.2573 4.00933 11.995C4.00823 11.7327 4.11023 11.4805 4.29335 11.2927L9.50002 6.08599M5.70735 12.7067L5.70069 12.7133" stroke="#A1A3A7" stroke-linecap="round" stroke-linejoin="round"/>
</svg>