<svg xmlns="http://www.w3.org/2000/svg" width="16" height="15" viewBox="0 0 16 15" fill="none">
<path d="M5.4953 5.97973C5.4953 6.05092 5.46702 6.11921 5.41667 6.16955C5.36633 6.21989 5.29805 6.24818 5.22685 6.24818C5.15565 6.24818 5.08737 6.21989 5.03703 6.16955C4.98668 6.11921 4.9584 6.05092 4.9584 5.97973C4.9584 5.90853 4.98668 5.84025 5.03703 5.7899C5.08737 5.73956 5.15565 5.71128 5.22685 5.71128C5.29805 5.71128 5.36633 5.73956 5.41667 5.7899C5.46702 5.84025 5.4953 5.90853 5.4953 5.97973ZM5.4953 5.97973H5.22685M8.17981 5.97973C8.17981 6.05092 8.15153 6.11921 8.10118 6.16955C8.05084 6.21989 7.98256 6.24818 7.91136 6.24818C7.84016 6.24818 7.77188 6.21989 7.72153 6.16955C7.67119 6.11921 7.64291 6.05092 7.64291 5.97973C7.64291 5.90853 7.67119 5.84025 7.72153 5.7899C7.77188 5.73956 7.84016 5.71128 7.91136 5.71128C7.98256 5.71128 8.05084 5.73956 8.10118 5.7899C8.15153 5.84025 8.17981 5.90853 8.17981 5.97973ZM8.17981 5.97973H7.91136M10.8643 5.97973C10.8643 6.05092 10.836 6.11921 10.7857 6.16955C10.7353 6.21989 10.6671 6.24818 10.5959 6.24818C10.5247 6.24818 10.4564 6.21989 10.406 6.16955C10.3557 6.11921 10.3274 6.05092 10.3274 5.97973C10.3274 5.90853 10.3557 5.84025 10.406 5.7899C10.4564 5.73956 10.5247 5.71128 10.5959 5.71128C10.6671 5.71128 10.7353 5.73956 10.7857 5.7899C10.836 5.84025 10.8643 5.90853 10.8643 5.97973ZM10.8643 5.97973H10.5959M0.931641 8.13449C0.931641 9.27988 1.73556 10.2778 2.8695 10.4446C3.64765 10.5591 4.43367 10.6472 5.22685 10.7088V14.0332L8.22204 11.0388C8.37034 10.8911 8.56973 10.806 8.77899 10.8011C10.1761 10.7667 11.5698 10.6477 12.9525 10.4446C14.0872 10.2778 14.8911 9.2806 14.8911 8.13377V3.82568C14.8911 2.67886 14.0872 1.68165 12.9532 1.51486C11.2838 1.26982 9.59868 1.14708 7.91136 1.14762C6.199 1.14762 4.51528 1.27289 2.8695 1.51486C1.73556 1.68165 0.931641 2.67957 0.931641 3.82568V8.13377V8.13449Z" stroke="#A1A3A7" stroke-width="1.0738" stroke-linecap="round" stroke-linejoin="round"/>
</svg>