<svg xmlns="http://www.w3.org/2000/svg" width="16" height="17" viewBox="0 0 16 17" fill="none">
<path d="M10.1213 10.6213C9.84276 10.8999 9.51204 11.1209 9.14806 11.2717C8.78408 11.4224 8.39397 11.5 8 11.5C7.60603 11.5 7.21592 11.4224 6.85194 11.2717C6.48796 11.1209 6.15724 10.8999 5.87867 10.6213M14 8.5C14 9.28793 13.8448 10.0681 13.5433 10.7961C13.2417 11.5241 12.7998 12.1855 12.2426 12.7426C11.6855 13.2998 11.0241 13.7417 10.2961 14.0433C9.56815 14.3448 8.78793 14.5 8 14.5C7.21207 14.5 6.43185 14.3448 5.7039 14.0433C4.97595 13.7417 4.31451 13.2998 3.75736 12.7426C3.20021 12.1855 2.75825 11.5241 2.45672 10.7961C2.15519 10.0681 2 9.28793 2 8.5C2 6.9087 2.63214 5.38258 3.75736 4.25736C4.88258 3.13214 6.4087 2.5 8 2.5C9.5913 2.5 11.1174 3.13214 12.2426 4.25736C13.3679 5.38258 14 6.9087 14 8.5ZM6.5 7C6.5 7.276 6.388 7.5 6.25 7.5C6.112 7.5 6 7.276 6 7C6 6.724 6.112 6.5 6.25 6.5C6.388 6.5 6.5 6.724 6.5 7ZM6.25 7H6.25533V7.01H6.25V7ZM10 7C10 7.276 9.888 7.5 9.75 7.5C9.612 7.5 9.5 7.276 9.5 7C9.5 6.724 9.612 6.5 9.75 6.5C9.888 6.5 10 6.724 10 7ZM9.75 7H9.75533V7.01H9.75V7Z" stroke="#A1A3A7" stroke-linecap="round" stroke-linejoin="round"/>
</svg>