<svg xmlns="http://www.w3.org/2000/svg" width="16" height="17" viewBox="0 0 16 17" fill="none">
<path d="M1.5 11L4.93933 7.56067C5.07862 7.42138 5.24398 7.31089 5.42597 7.2355C5.60796 7.16012 5.80302 7.12132 6 7.12132C6.19698 7.12132 6.39204 7.16012 6.57403 7.2355C6.75602 7.31089 6.92138 7.42138 7.06067 7.56067L10.5 11M9.5 10L10.4393 9.06067C10.5786 8.92138 10.744 8.81089 10.926 8.7355C11.108 8.66012 11.303 8.62132 11.5 8.62132C11.697 8.62132 11.892 8.66012 12.074 8.7355C12.256 8.81089 12.4214 8.92138 12.5607 9.06067L14.5 11M2.5 13.5H13.5C13.7652 13.5 14.0196 13.3946 14.2071 13.2071C14.3946 13.0196 14.5 12.7652 14.5 12.5V4.5C14.5 4.23478 14.3946 3.98043 14.2071 3.79289C14.0196 3.60536 13.7652 3.5 13.5 3.5H2.5C2.23478 3.5 1.98043 3.60536 1.79289 3.79289C1.60536 3.98043 1.5 4.23478 1.5 4.5V12.5C1.5 12.7652 1.60536 13.0196 1.79289 13.2071C1.98043 13.3946 2.23478 13.5 2.5 13.5ZM9.5 6H9.50533V6.00533H9.5V6ZM9.75 6C9.75 6.0663 9.72366 6.12989 9.67678 6.17678C9.62989 6.22366 9.5663 6.25 9.5 6.25C9.4337 6.25 9.37011 6.22366 9.32322 6.17678C9.27634 6.12989 9.25 6.0663 9.25 6C9.25 5.9337 9.27634 5.87011 9.32322 5.82322C9.37011 5.77634 9.4337 5.75 9.5 5.75C9.5663 5.75 9.62989 5.77634 9.67678 5.82322C9.72366 5.87011 9.75 5.9337 9.75 6Z" stroke="#A1A3A7" stroke-linecap="round" stroke-linejoin="round"/>
</svg>