<svg xmlns="http://www.w3.org/2000/svg" width="16" height="17" viewBox="0 0 16 17" fill="none">
  <path d="M4.55133 4.61668C4.43133 4.80662 4.27121 4.968 4.08222 5.0895C3.89324 5.211 3.67995 5.28968 3.45733 5.32001C3.204 5.35601 2.95267 5.39468 2.70133 5.43668C1.99933 5.55335 1.5 6.17135 1.5 6.88268V12.5C1.5 12.8978 1.65804 13.2794 1.93934 13.5607C2.22064 13.842 2.60218 14 3 14H13C13.3978 14 13.7794 13.842 14.0607 13.5607C14.342 13.2794 14.5 12.8978 14.5 12.5V6.88268C14.5 6.17135 14 5.55335 13.2987 5.43668C13.0471 5.39477 12.7951 5.35588 12.5427 5.32001C12.3202 5.28959 12.107 5.21087 11.9181 5.08937C11.7293 4.96788 11.5693 4.80654 11.4493 4.61668L10.9013 3.73935C10.7783 3.53941 10.6088 3.37208 10.4074 3.25151C10.2059 3.13093 9.97836 3.06068 9.744 3.04668C8.58217 2.98428 7.41783 2.98428 6.256 3.04668C6.02164 3.06068 5.7941 3.13093 5.59264 3.25151C5.39118 3.37208 5.22174 3.53941 5.09867 3.73935L4.55133 4.61668Z" stroke="#A1A3A7" stroke-linecap="round" stroke-linejoin="round"/>
  <path d="M11 9C11 9.79565 10.6839 10.5587 10.1213 11.1213C9.55871 11.6839 8.79565 12 8 12C7.20435 12 6.44129 11.6839 5.87868 11.1213C5.31607 10.5587 5 9.79565 5 9C5 8.20435 5.31607 7.44129 5.87868 6.87868C6.44129 6.31607 7.20435 6 8 6C8.79565 6 9.55871 6.31607 10.1213 6.87868C10.6839 7.44129 11 8.20435 11 9ZM12.5 7.5H12.5053V7.50533H12.5V7.5Z" stroke="#A1A3A7" stroke-linecap="round" stroke-linejoin="round"/>
</svg>