<svg xmlns="http://www.w3.org/2000/svg" width="16" height="16" viewBox="0 0 16 16" fill="none">
<path d="M4.81112 7.27137C4.6497 6.98091 4.39639 6.75228 4.09097 6.62136C3.78555 6.49044 3.4453 6.46464 3.12363 6.54802C2.80196 6.6314 2.51708 6.81924 2.31371 7.08204C2.11034 7.34484 2 7.66774 2 8.00004C2 8.33234 2.11034 8.65523 2.31371 8.91803C2.51708 9.18084 2.80196 9.36867 3.12363 9.45205C3.4453 9.53543 3.78555 9.50963 4.09097 9.37871C4.39639 9.24779 4.6497 9.01916 4.81112 8.7287M4.81112 7.27137C4.93112 7.48737 4.99979 7.73537 4.99979 8.00004C4.99979 8.2647 4.93112 8.51337 4.81112 8.7287M4.81112 7.27137L11.1885 3.7287M4.81112 8.7287L11.1885 12.2714M11.1885 3.7287C11.282 3.90479 11.4096 4.06048 11.564 4.18666C11.7184 4.31283 11.8964 4.40696 12.0875 4.46355C12.2787 4.52014 12.4793 4.53805 12.6774 4.51623C12.8756 4.49441 13.0675 4.4333 13.2417 4.33648C13.416 4.23965 13.5693 4.10905 13.6925 3.95231C13.8157 3.79557 13.9065 3.61584 13.9594 3.42362C14.0124 3.23141 14.0265 3.03056 14.0009 2.83283C13.9753 2.6351 13.9106 2.44445 13.8105 2.27204C13.6132 1.93226 13.2904 1.68346 12.9117 1.57911C12.5329 1.47476 12.1283 1.5232 11.7848 1.71401C11.4414 1.90481 11.1865 2.22276 11.075 2.5995C10.9634 2.97624 11.0042 3.38169 11.1885 3.7287ZM11.1885 12.2714C11.0928 12.4436 11.0319 12.633 11.0095 12.8288C10.987 13.0245 11.0033 13.2228 11.0574 13.4123C11.1115 13.6017 11.2025 13.7787 11.325 13.933C11.4475 14.0873 11.5992 14.216 11.7715 14.3117C11.9437 14.4074 12.1331 14.4682 12.3289 14.4907C12.5246 14.5132 12.7229 14.4969 12.9124 14.4428C13.1018 14.3886 13.2788 14.2977 13.4331 14.1752C13.5874 14.0527 13.7161 13.901 13.8118 13.7287C14.005 13.3808 14.0522 12.9704 13.9429 12.5878C13.8335 12.2052 13.5767 11.8816 13.2288 11.6884C12.8809 11.4951 12.4705 11.448 12.0879 11.5573C11.7052 11.6666 11.3817 11.9235 11.1885 12.2714Z" stroke="#A1A3A7" stroke-width="1.0625" stroke-linecap="round" stroke-linejoin="round"/>
</svg>