<svg width="32" height="32" viewBox="0 0 32 32" fill="none" xmlns="http://www.w3.org/2000/svg">
<path d="M27 3H5C4.46957 3 3.96086 3.24903 3.58579 3.69229C3.21071 4.13556 3 4.73676 3 5.36364V26.6364C3 27.2632 3.21071 27.8644 3.58579 28.3077C3.96086 28.751 4.46957 29 5 29H27C27.5304 29 28.0391 28.751 28.4142 28.3077C28.7893 27.8644 29 27.2632 29 26.6364V5.36364C29 4.73676 28.7893 4.13556 28.4142 3.69229C28.0391 3.24903 27.5304 3 27 3ZM27 26.6364H5V5.36364H27V26.6364ZM23 11.2727C23 11.5862 22.8946 11.8868 22.7071 12.1084C22.5196 12.33 22.2652 12.4545 22 12.4545H10C9.73478 12.4545 9.48043 12.33 9.29289 12.1084C9.10536 11.8868 9 11.5862 9 11.2727C9 10.9593 9.10536 10.6587 9.29289 10.4371C9.48043 10.2154 9.73478 10.0909 10 10.0909H22C22.2652 10.0909 22.5196 10.2154 22.7071 10.4371C22.8946 10.6587 23 10.9593 23 11.2727ZM23 16C23 16.3134 22.8946 16.614 22.7071 16.8357C22.5196 17.0573 22.2652 17.1818 22 17.1818H10C9.73478 17.1818 9.48043 17.0573 9.29289 16.8357C9.10536 16.614 9 16.3134 9 16C9 15.6866 9.10536 15.386 9.29289 15.1643C9.48043 14.9427 9.73478 14.8182 10 14.8182H22C22.2652 14.8182 22.5196 14.9427 22.7071 15.1643C22.8946 15.386 23 15.6866 23 16ZM23 20.7273C23 21.0407 22.8946 21.3413 22.7071 21.5629C22.5196 21.7846 22.2652 21.9091 22 21.9091H10C9.73478 21.9091 9.48043 21.7846 9.29289 21.5629C9.10536 21.3413 9 21.0407 9 20.7273C9 20.4138 9.10536 20.1132 9.29289 19.8916C9.48043 19.67 9.73478 19.5455 10 19.5455H22C22.2652 19.5455 22.5196 19.67 22.7071 19.8916C22.8946 20.1132 23 20.4138 23 20.7273Z" fill="black"/>
</svg>
