<svg width="32" height="32" viewBox="0 0 32 32" fill="none" xmlns="http://www.w3.org/2000/svg">
<path d="M28.705 21.9933C27.9533 20.7983 26.8359 17.4169 26.8359 13.0004C26.8359 10.3482 25.6943 7.8045 23.6623 5.92906C21.6303 4.05361 18.8744 3 16.0007 3C13.127 3 10.371 4.05361 8.33903 5.92906C6.30703 7.8045 5.16547 10.3482 5.16547 13.0004C5.16547 17.4181 4.04674 20.7983 3.29504 21.9933C3.10309 22.2971 3.00132 22.6423 3.00001 22.994C2.9987 23.3457 3.0979 23.6915 3.28759 23.9965C3.47729 24.3015 3.75077 24.555 4.08047 24.7314C4.41016 24.9077 4.78441 25.0007 5.16547 25.0009H10.6928C10.9428 26.1299 11.6076 27.1446 12.5748 27.8733C13.542 28.602 14.7522 29 16.0007 29C17.2492 29 18.4594 28.602 19.4266 27.8733C20.3938 27.1446 21.0586 26.1299 21.3086 25.0009H26.8359C27.2168 25.0005 27.5909 24.9073 27.9204 24.7309C28.2499 24.5545 28.5232 24.301 28.7127 23.996C28.9023 23.691 29.0014 23.3453 29 22.9937C28.9986 22.6421 28.8969 22.297 28.705 21.9933ZM16.0007 27.001C15.3286 27.0008 14.6732 26.8084 14.1246 26.4502C13.5759 26.0921 13.161 25.5857 12.937 25.0009H19.0643C18.8403 25.5857 18.4254 26.0921 17.8768 26.4502C17.3281 26.8084 16.6727 27.0008 16.0007 27.001ZM5.16547 23.0009C6.20836 21.3458 7.33251 17.5106 7.33251 13.0004C7.33251 10.8786 8.24576 8.84369 9.87136 7.34333C11.497 5.84298 13.7017 5.00009 16.0007 5.00009C18.2996 5.00009 20.5044 5.84298 22.13 7.34333C23.7556 8.84369 24.6688 10.8786 24.6688 13.0004C24.6688 17.5069 25.7903 21.342 26.8359 23.0009H5.16547Z" fill="black"/>
</svg>
