<svg width="32" height="32" viewBox="0 0 32 32" fill="none" xmlns="http://www.w3.org/2000/svg">
<path d="M26.8333 5H23.5833V4C23.5833 3.73478 23.4692 3.48043 23.266 3.29289C23.0629 3.10536 22.7873 3 22.5 3C22.2127 3 21.9371 3.10536 21.734 3.29289C21.5308 3.48043 21.4167 3.73478 21.4167 4V5H10.5833V4C10.5833 3.73478 10.4692 3.48043 10.266 3.29289C10.0629 3.10536 9.78732 3 9.5 3C9.21268 3 8.93713 3.10536 8.73397 3.29289C8.5308 3.48043 8.41667 3.73478 8.41667 4V5H5.16667C4.59203 5 4.04093 5.21071 3.6346 5.58579C3.22827 5.96086 3 6.46957 3 7V27C3 27.5304 3.22827 28.0391 3.6346 28.4142C4.04093 28.7893 4.59203 29 5.16667 29H26.8333C27.408 29 27.9591 28.7893 28.3654 28.4142C28.7717 28.0391 29 27.5304 29 27V7C29 6.46957 28.7717 5.96086 28.3654 5.58579C27.9591 5.21071 27.408 5 26.8333 5ZM8.41667 7V8C8.41667 8.26522 8.5308 8.51957 8.73397 8.70711C8.93713 8.89464 9.21268 9 9.5 9C9.78732 9 10.0629 8.89464 10.266 8.70711C10.4692 8.51957 10.5833 8.26522 10.5833 8V7H21.4167V8C21.4167 8.26522 21.5308 8.51957 21.734 8.70711C21.9371 8.89464 22.2127 9 22.5 9C22.7873 9 23.0629 8.89464 23.266 8.70711C23.4692 8.51957 23.5833 8.26522 23.5833 8V7H26.8333V11H5.16667V7H8.41667ZM26.8333 27H5.16667V13H26.8333V27ZM13.8333 16V24C13.8333 24.2652 13.7192 24.5196 13.516 24.7071C13.3129 24.8946 13.0373 25 12.75 25C12.4627 25 12.1871 24.8946 11.984 24.7071C11.7808 24.5196 11.6667 24.2652 11.6667 24V17.6175L11.0681 17.895C10.811 18.0137 10.5133 18.0332 10.2405 17.9493C9.96779 17.8654 9.74232 17.6849 9.61375 17.4475C9.48518 17.2101 9.46402 16.9353 9.55493 16.6836C9.64585 16.4318 9.84139 16.2237 10.0985 16.105L12.2652 15.105C12.4304 15.0287 12.6141 14.9926 12.7986 15.0003C12.9832 15.0079 13.1626 15.059 13.3197 15.1487C13.4769 15.2384 13.6066 15.3637 13.6964 15.5127C13.7863 15.6617 13.8335 15.8295 13.8333 16ZM21.8446 19.8062L19.25 23H21.4167C21.704 23 21.9795 23.1054 22.1827 23.2929C22.3859 23.4804 22.5 23.7348 22.5 24C22.5 24.2652 22.3859 24.5196 22.1827 24.7071C21.9795 24.8946 21.704 25 21.4167 25H17.0833C16.8821 25 16.6849 24.9483 16.5138 24.8507C16.3427 24.753 16.2043 24.6133 16.1144 24.4472C16.0244 24.2811 15.9863 24.0952 16.0044 23.9102C16.0224 23.7252 16.096 23.5486 16.2167 23.4L20.114 18.6038C20.2026 18.4948 20.2662 18.3703 20.3008 18.2379C20.3355 18.1054 20.3404 17.9678 20.3154 17.8336C20.2904 17.6993 20.2359 17.5712 20.1553 17.457C20.0747 17.3429 19.9697 17.2452 19.8467 17.1699C19.7237 17.0945 19.5853 17.0432 19.44 17.019C19.2948 16.9949 19.1457 16.9983 19.002 17.0292C18.8582 17.0602 18.7228 17.1179 18.6041 17.1988C18.4854 17.2798 18.3858 17.3823 18.3116 17.5C18.2425 17.6174 18.1487 17.7208 18.0357 17.8041C17.9227 17.8875 17.7927 17.9491 17.6535 17.9853C17.5142 18.0215 17.3685 18.0316 17.225 18.0151C17.0814 17.9985 16.943 17.9555 16.8177 17.8887C16.6924 17.8219 16.5829 17.7327 16.4956 17.6262C16.4083 17.5197 16.345 17.3981 16.3095 17.2687C16.2739 17.1392 16.2668 17.0045 16.2885 16.8725C16.3102 16.7405 16.3604 16.6138 16.436 16.5C16.7939 15.9284 17.346 15.4817 18.0069 15.2291C18.6677 14.9766 19.4004 14.9323 20.0912 15.1032C20.7821 15.2741 21.3926 15.6506 21.8281 16.1743C22.2636 16.6981 22.4998 17.3398 22.5 18C22.5023 18.6522 22.272 19.2869 21.8446 19.8062Z" fill="black"/>
</svg>
