<svg xmlns="http://www.w3.org/2000/svg" width="18" height="18" viewBox="0 0 18 18" fill="none">
  <path d="M17.9999 15.1473V17.3571C17.9999 17.5276 17.8946 17.6912 17.7071 17.8117C17.5195 17.9323 17.2652 18 16.9999 18C16.7347 18 16.4804 17.9323 16.2928 17.8117C16.1053 17.6912 16 17.5276 16 17.3571V15.1473C16.0049 14.1915 15.5932 13.2539 14.8115 12.4408C14.0299 11.6277 12.9095 10.9716 11.5775 10.5469L5.52752 8.60303C3.86257 8.07218 2.46225 7.25209 1.4853 6.23574C0.50834 5.21939 -0.00618156 4.04742 5.60476e-05 2.85268V0.642857C5.60476e-05 0.472361 0.105412 0.308848 0.292948 0.188288C0.480483 0.0677294 0.734835 0 1.00005 0C1.26526 0 1.51962 0.0677294 1.70715 0.188288C1.89469 0.308848 2.00004 0.472361 2.00004 0.642857V2.85268C1.99514 3.80852 2.40685 4.74613 3.1885 5.55924C3.97015 6.37234 5.09048 7.02843 6.42252 7.45312L12.4725 9.39696C14.1374 9.92782 15.5377 10.7479 16.5147 11.7643C17.4917 12.7806 18.0062 13.9526 17.9999 15.1473ZM13 14.7857H2.02129C2.0694 14.3478 2.2051 13.9156 2.42504 13.5H11.5137C11.7789 13.5 12.0333 13.4323 12.2208 13.3117C12.4084 13.1912 12.5137 13.0276 12.5137 12.8571C12.5137 12.6866 12.4084 12.5231 12.2208 12.4026C12.0333 12.282 11.7789 12.2143 11.5137 12.2143H3.43253C3.93434 11.7479 4.55318 11.3384 5.26377 11.0025C5.36982 10.9525 5.45951 10.8896 5.52773 10.8174C5.59596 10.7451 5.64138 10.6649 5.6614 10.5814C5.68143 10.4979 5.67566 10.4126 5.64443 10.3305C5.6132 10.2484 5.55712 10.1711 5.4794 10.1029C5.40167 10.0347 5.30382 9.97707 5.19143 9.93321C5.07904 9.88935 4.95431 9.86015 4.82437 9.84728C4.69443 9.83441 4.56181 9.83812 4.4341 9.85819C4.30639 9.87827 4.18607 9.91432 4.08003 9.96429C2.81684 10.5629 1.78968 11.3437 1.08109 12.2438C0.3725 13.144 0.00223858 14.1385 5.60476e-05 15.1473V17.3571C5.60476e-05 17.5276 0.105412 17.6912 0.292948 17.8117C0.480483 17.9323 0.734835 18 1.00005 18C1.26526 18 1.51962 17.9323 1.70715 17.8117C1.89469 17.6912 2.00004 17.5276 2.00004 17.3571V16.0714H13C13.2652 16.0714 13.5195 16.0037 13.7071 15.8831C13.8946 15.7626 14 15.5991 14 15.4286C14 15.2581 13.8946 15.0946 13.7071 14.974C13.5195 14.8534 13.2652 14.7857 13 14.7857ZM16.9999 0C16.7347 0 16.4804 0.0677294 16.2928 0.188288C16.1053 0.308848 16 0.472361 16 0.642857V1.92857H5.00002C4.73481 1.92857 4.48046 1.9963 4.29292 2.11686C4.10539 2.23742 4.00003 2.40093 4.00003 2.57143C4.00003 2.74192 4.10539 2.90544 4.29292 3.026C4.48046 3.14656 4.73481 3.21429 5.00002 3.21429H15.9787C15.9306 3.65223 15.7949 4.08436 15.575 4.5H6.48627C6.22105 4.5 5.9667 4.56773 5.77916 4.68829C5.59163 4.80885 5.48627 4.97236 5.48627 5.14286C5.48627 5.31335 5.59163 5.47687 5.77916 5.59743C5.9667 5.71798 6.22105 5.78571 6.48627 5.78571H14.5675C14.0657 6.25205 13.4468 6.66155 12.7362 6.9975C12.6303 7.04747 12.5408 7.11035 12.4727 7.18256C12.4047 7.25477 12.3594 7.33489 12.3395 7.41836C12.3196 7.50182 12.3254 7.58698 12.3567 7.66899C12.388 7.75099 12.4441 7.82823 12.5219 7.89629C12.6788 8.03376 12.9143 8.1255 13.1765 8.15135C13.3063 8.16414 13.4388 8.16038 13.5664 8.14026C13.6939 8.12014 13.8141 8.08407 13.92 8.03411C15.1828 7.43564 16.2098 6.65514 16.9183 5.75527C17.6269 4.85541 17.9974 3.86126 17.9999 2.85268V0.642857C17.9999 0.472361 17.8946 0.308848 17.7071 0.188288C17.5195 0.0677294 17.2652 0 16.9999 0Z" fill="#F5F5F5"/>
</svg>