<svg width="32" height="32" viewBox="0 0 32 32" fill="none" xmlns="http://www.w3.org/2000/svg">
<path d="M28.9999 24.8795V28.0714C28.9999 28.3177 28.8477 28.5539 28.5769 28.728C28.306 28.9022 27.9386 29 27.5555 29C27.1724 29 26.805 28.9022 26.5341 28.728C26.2632 28.5539 26.111 28.3177 26.111 28.0714V24.8795C26.1181 23.4988 25.5234 22.1445 24.3944 20.97C23.2653 19.7955 21.6471 18.8478 19.723 18.2344L10.9842 15.4266C8.57927 14.6598 6.55659 13.4752 5.14543 12.0072C3.73427 10.5391 2.99107 8.84627 3.00008 7.12054V3.92857C3.00008 3.6823 3.15226 3.44611 3.42315 3.27197C3.69403 3.09783 4.06143 3 4.44452 3C4.8276 3 5.195 3.09783 5.46589 3.27197C5.73677 3.44611 5.88895 3.6823 5.88895 3.92857V7.12054C5.88187 8.50119 6.47656 9.85552 7.60561 11.03C8.73466 12.2045 10.3529 13.1522 12.277 13.7656L21.0158 16.5734C23.4207 17.3402 25.4434 18.5248 26.8546 19.9928C28.2657 21.4609 29.0089 23.1537 28.9999 24.8795ZM21.7777 24.3571H5.91965C5.98913 23.7246 6.18514 23.1004 6.50284 22.5H19.6309C20.014 22.5 20.3814 22.4022 20.6523 22.228C20.9232 22.0539 21.0754 21.8177 21.0754 21.5714C21.0754 21.3252 20.9232 21.089 20.6523 20.9148C20.3814 20.7407 20.014 20.6429 19.6309 20.6429H7.95811C8.68294 19.9693 9.57682 19.3778 10.6032 18.8925C10.7564 18.8203 10.886 18.7295 10.9845 18.6251C11.0831 18.5207 11.1487 18.4049 11.1776 18.2843C11.2065 18.1636 11.1982 18.0405 11.1531 17.9219C11.108 17.8033 11.027 17.6915 10.9147 17.5931C10.8024 17.4946 10.6611 17.4113 10.4987 17.348C10.3364 17.2846 10.1562 17.2424 9.96854 17.2239C9.78084 17.2053 9.58929 17.2106 9.40481 17.2396C9.22033 17.2686 9.04655 17.3207 8.89338 17.3929C7.06876 18.2575 5.58509 19.3853 4.56157 20.6855C3.53806 21.9858 3.00323 23.4222 3.00008 24.8795V28.0714C3.00008 28.3177 3.15226 28.5539 3.42315 28.728C3.69403 28.9022 4.06143 29 4.44452 29C4.8276 29 5.195 28.9022 5.46589 28.728C5.73677 28.5539 5.88895 28.3177 5.88895 28.0714V26.2143H21.7777C22.1608 26.2143 22.5282 26.1165 22.7991 25.9423C23.07 25.7682 23.2222 25.532 23.2222 25.2857C23.2222 25.0394 23.07 24.8033 22.7991 24.6291C22.5282 24.455 22.1608 24.3571 21.7777 24.3571ZM27.5555 3C27.1724 3 26.805 3.09783 26.5341 3.27197C26.2632 3.44611 26.111 3.6823 26.111 3.92857V5.78571H10.2223C9.83917 5.78571 9.47177 5.88355 9.20089 6.05769C8.93 6.23183 8.77782 6.46801 8.77782 6.71429C8.77782 6.96056 8.93 7.19674 9.20089 7.37088C9.47177 7.54503 9.83917 7.64286 10.2223 7.64286H26.0804C26.0109 8.27544 25.8149 8.89963 25.4972 9.5H12.3691C11.986 9.5 11.6186 9.59783 11.3477 9.77197C11.0768 9.94611 10.9246 10.1823 10.9246 10.4286C10.9246 10.6748 11.0768 10.911 11.3477 11.0852C11.6186 11.2593 11.986 11.3571 12.3691 11.3571H24.0419C23.3171 12.0307 22.4232 12.6222 21.3968 13.1075C21.2438 13.1797 21.1145 13.2705 21.0162 13.3748C20.9179 13.4791 20.8524 13.5948 20.8237 13.7154C20.7949 13.836 20.8034 13.959 20.8486 14.0774C20.8938 14.1959 20.9748 14.3074 21.0871 14.4058C21.3139 14.6043 21.654 14.7368 22.0327 14.7742C22.2203 14.7927 22.4116 14.7872 22.5959 14.7582C22.7801 14.7291 22.9537 14.677 23.1066 14.6048C24.9307 13.7404 26.4141 12.613 27.4376 11.3132C28.4611 10.0134 28.9962 8.57738 28.9999 7.12054V3.92857C28.9999 3.6823 28.8477 3.44611 28.5769 3.27197C28.306 3.09783 27.9386 3 27.5555 3Z" fill="black"/>
</svg>
