<svg width="32" height="32" viewBox="0 0 32 32" fill="none" xmlns="http://www.w3.org/2000/svg">
<path d="M9.51128 16.0355C9.51826 18.6658 8.92762 21.2613 7.78653 23.6149C7.73206 23.7369 7.65433 23.8464 7.55795 23.937C7.46157 24.0275 7.3485 24.0972 7.22545 24.1419C7.1024 24.1866 6.97188 24.2054 6.84163 24.1972C6.71138 24.189 6.58406 24.154 6.46721 24.0942C6.35036 24.0344 6.24637 23.9511 6.16142 23.8492C6.07646 23.7473 6.01226 23.6288 5.97263 23.5009C5.933 23.3729 5.91874 23.2381 5.93071 23.1044C5.94268 22.9707 5.98062 22.8408 6.04229 22.7225C7.0484 20.6458 7.56895 18.3559 7.56241 16.0355C7.56012 14.6824 7.85467 13.3462 8.42411 12.1265C8.99354 10.9068 9.82316 9.83511 10.8511 8.99132C11.0529 8.8251 11.3105 8.74817 11.5674 8.77743C11.8243 8.8067 12.0593 8.93977 12.2208 9.14737C12.3823 9.35497 12.4571 9.62009 12.4287 9.88442C12.4002 10.1487 12.2709 10.3906 12.0692 10.5568C11.2695 11.2129 10.6241 12.0464 10.1812 12.995C9.73825 13.9437 9.50926 14.983 9.51128 16.0355ZM16.3323 15.0328C16.0739 15.0328 15.826 15.1384 15.6433 15.3265C15.4606 15.5145 15.3579 15.7696 15.3579 16.0355C15.3577 19.9421 14.3938 23.7848 12.5564 27.2034C12.4311 27.4361 12.4007 27.7105 12.4719 27.9663C12.5432 28.222 12.7103 28.4381 12.9364 28.5671C13.1626 28.6961 13.4292 28.7274 13.6777 28.654C13.9263 28.5807 14.1363 28.4088 14.2617 28.1761C16.2587 24.4596 17.3065 20.2823 17.3068 16.0355C17.3068 15.7696 17.2041 15.5145 17.0214 15.3265C16.8386 15.1384 16.5908 15.0328 16.3323 15.0328ZM16.3323 11.0218C15.0402 11.0218 13.8009 11.5501 12.8872 12.4903C11.9735 13.4306 11.4602 14.7058 11.4602 16.0355C11.4602 16.3014 11.5628 16.5565 11.7456 16.7445C11.9283 16.9326 12.1762 17.0382 12.4346 17.0382C12.693 17.0382 12.9409 16.9326 13.1236 16.7445C13.3064 16.5565 13.409 16.3014 13.409 16.0355C13.409 15.2377 13.717 14.4725 14.2652 13.9084C14.8135 13.3442 15.557 13.0273 16.3323 13.0273C17.1076 13.0273 17.8512 13.3442 18.3994 13.9084C18.9477 14.4725 19.2556 15.2377 19.2556 16.0355C19.2657 20.0226 18.4123 23.9618 16.7574 27.5669C16.7028 27.6863 16.6716 27.8156 16.6655 27.9475C16.6595 28.0793 16.6787 28.2111 16.7221 28.3353C16.7656 28.4595 16.8323 28.5736 16.9186 28.6713C17.005 28.7689 17.1091 28.8481 17.2252 28.9043C17.3412 28.9605 17.4669 28.9926 17.595 28.9989C17.7231 29.0051 17.8512 28.9853 17.9719 28.9406C18.0925 28.8959 18.2035 28.8272 18.2984 28.7384C18.3932 28.6496 18.4702 28.5424 18.5248 28.423C20.3011 24.5499 21.2165 20.3182 21.2045 16.0355C21.2045 14.7058 20.6912 13.4306 19.7775 12.4903C18.8638 11.5501 17.6245 11.0218 16.3323 11.0218ZM16.3323 3C12.9737 3.00365 9.75374 4.3782 7.37886 6.82204C5.00398 9.26588 3.66821 12.5794 3.66467 16.0355C3.66647 17.2877 3.46051 18.5309 3.05564 19.7118C2.96955 19.9626 2.98381 20.2383 3.09528 20.4783C3.20676 20.7183 3.40631 20.9029 3.65005 20.9915C3.89379 21.0801 4.16174 21.0654 4.39497 20.9507C4.62819 20.836 4.80758 20.6306 4.89367 20.3798C5.37173 18.9843 5.61516 17.5152 5.61354 16.0355C5.61354 13.1102 6.74284 10.3046 8.753 8.23608C10.7632 6.16755 13.4895 5.00546 16.3323 5.00546C19.1751 5.00546 21.9015 6.16755 23.9117 8.23608C25.9218 10.3046 27.0511 13.1102 27.0511 16.0355C27.0516 18.3265 26.8358 20.6122 26.4068 22.8603C26.382 22.9895 26.3821 23.1225 26.4073 23.2517C26.4324 23.3808 26.482 23.5036 26.5533 23.613C26.6245 23.7224 26.716 23.8163 26.8226 23.8893C26.9291 23.9624 27.0486 24.0131 27.1741 24.0385C27.2364 24.0509 27.2996 24.0572 27.3629 24.0573C27.5884 24.0571 27.8069 23.9764 27.981 23.829C28.1551 23.6815 28.2742 23.4765 28.3179 23.2489C28.7717 20.8728 29.0001 18.457 29 16.0355C28.9961 12.5795 27.6603 9.26617 25.2855 6.82241C22.9106 4.37864 19.6908 3.00398 16.3323 3ZM12.2397 19.065C11.987 19.0133 11.7246 19.0666 11.5101 19.2135C11.2955 19.3603 11.1462 19.5886 11.0947 19.8484C10.6994 21.8509 9.99144 23.7743 8.99849 25.5439C8.86927 25.7743 8.83427 26.048 8.9012 26.3049C8.96813 26.5619 9.1315 26.7809 9.35537 26.9139C9.57924 27.0468 9.84528 27.0829 10.0949 27.014C10.3446 26.9451 10.5575 26.777 10.6867 26.5466C11.784 24.5897 12.5656 22.4627 13.001 20.2482C13.0266 20.1191 13.0272 19.986 13.0028 19.8566C12.9784 19.7273 12.9294 19.6041 12.8587 19.4942C12.788 19.3843 12.6969 19.2898 12.5907 19.2162C12.4845 19.1425 12.3652 19.0912 12.2397 19.065ZM16.3323 7.01092C15.9659 7.011 15.5997 7.03445 15.2361 7.08111C14.9845 7.11999 14.7576 7.2586 14.604 7.46732C14.4503 7.67605 14.3822 7.93833 14.414 8.19811C14.4458 8.45789 14.5751 8.69456 14.7742 8.85754C14.9734 9.02051 15.2266 9.09687 15.4797 9.07028C16.4397 8.94745 17.414 9.03583 18.3383 9.32958C19.2626 9.62333 20.1157 10.1157 20.8412 10.7742C21.5666 11.4327 22.1479 12.2423 22.5465 13.1493C22.9451 14.0563 23.152 15.0401 23.1534 16.0355C23.1531 17.3344 23.075 18.6321 22.9195 19.9211C22.9024 20.0522 22.9107 20.1854 22.9439 20.3132C22.9771 20.441 23.0345 20.5608 23.1128 20.6656C23.1912 20.7705 23.2889 20.8584 23.4004 20.9242C23.5119 20.99 23.6349 21.0325 23.7624 21.0492C23.8028 21.0542 23.8435 21.0567 23.8842 21.0567C24.1212 21.0561 24.3499 20.9668 24.5274 20.8053C24.705 20.6438 24.8193 20.4212 24.8489 20.1793C25.0132 18.807 25.0946 17.4256 25.0925 16.043C25.0919 13.6508 24.1693 11.3565 22.527 9.66329C20.8848 7.97009 18.657 7.01623 16.3323 7.01092ZM23.3885 23.0859C23.2645 23.053 23.1354 23.0454 23.0086 23.0638C22.8818 23.0822 22.7598 23.1261 22.6495 23.193C22.5392 23.26 22.4428 23.3486 22.3659 23.4539C22.2889 23.5592 22.2328 23.6791 22.2009 23.8067C22.023 24.5199 21.8172 25.2356 21.5919 25.9375C21.5094 26.189 21.5272 26.4638 21.6414 26.7018C21.7555 26.9398 21.9567 27.1216 22.2009 27.2072C22.3009 27.2422 22.4058 27.26 22.5115 27.2598C22.7156 27.2597 22.9146 27.1935 23.0803 27.0707C23.2459 26.9479 23.3699 26.7747 23.4348 26.5755C23.6784 25.8334 23.8964 25.0714 24.0864 24.313C24.1191 24.1855 24.1269 24.0525 24.1096 23.9218C24.0922 23.7911 24.05 23.6652 23.9853 23.5513C23.9205 23.4375 23.8346 23.3378 23.7324 23.2582C23.6302 23.1786 23.5137 23.1204 23.3897 23.0872L23.3885 23.0859Z" fill="black"/>
</svg>
