<svg xmlns="http://www.w3.org/2000/svg" width="18" height="18" viewBox="0 0 18 18" fill="none">
<path d="M15.2308 7.36364C15.2308 7.58063 15.1578 7.78874 15.028 7.94218C14.8982 8.09562 14.7221 8.18182 14.5385 8.18182H11.0769C10.8933 8.18182 10.7172 8.09562 10.5874 7.94218C10.4576 7.78874 10.3846 7.58063 10.3846 7.36364C10.3846 7.14664 10.4576 6.93853 10.5874 6.78509C10.7172 6.63166 10.8933 6.54545 11.0769 6.54545H14.5385C14.7221 6.54545 14.8982 6.63166 15.028 6.78509C15.1578 6.93853 15.2308 7.14664 15.2308 7.36364ZM14.5385 9.81818H11.0769C10.8933 9.81818 10.7172 9.90438 10.5874 10.0578C10.4576 10.2113 10.3846 10.4194 10.3846 10.6364C10.3846 10.8534 10.4576 11.0615 10.5874 11.2149C10.7172 11.3683 10.8933 11.4545 11.0769 11.4545H14.5385C14.7221 11.4545 14.8982 11.3683 15.028 11.2149C15.1578 11.0615 15.2308 10.8534 15.2308 10.6364C15.2308 10.4194 15.1578 10.2113 15.028 10.0578C14.8982 9.90438 14.7221 9.81818 14.5385 9.81818ZM18 1.63636V16.3636C18 16.7976 17.8541 17.2138 17.5945 17.5207C17.3348 17.8276 16.9826 18 16.6154 18H1.38462C1.01739 18 0.66521 17.8276 0.405544 17.5207C0.145879 17.2138 0 16.7976 0 16.3636V1.63636C0 1.20237 0.145879 0.786157 0.405544 0.47928C0.66521 0.172402 1.01739 0 1.38462 0H16.6154C16.9826 0 17.3348 0.172402 17.5945 0.47928C17.8541 0.786157 18 1.20237 18 1.63636ZM16.6154 16.3636V1.63636H1.38462V16.3636H16.6154ZM9.66981 12.8864C9.71571 13.0966 9.68907 13.3197 9.59576 13.5067C9.50244 13.6937 9.35009 13.8293 9.17221 13.8835C8.99434 13.9378 8.80552 13.9063 8.64728 13.796C8.48905 13.6857 8.37436 13.5057 8.32846 13.2955C8.10087 12.2461 7.19827 11.4545 6.2299 11.4545C5.26154 11.4545 4.35981 12.2461 4.13135 13.2955C4.08544 13.5057 3.97076 13.6857 3.81253 13.796C3.65429 13.9063 3.46547 13.9378 3.2876 13.8835C3.10972 13.8293 2.95737 13.6937 2.86405 13.5067C2.77073 13.3197 2.7441 13.0966 2.79 12.8864C3.01465 11.8982 3.5457 11.046 4.2776 10.4993C3.88866 10.0424 3.62328 9.45929 3.5151 8.82391C3.40691 8.18854 3.46078 7.5295 3.66989 6.93036C3.87901 6.33121 4.23394 5.81893 4.68969 5.45846C5.14544 5.09798 5.6815 4.90555 6.2299 4.90555C6.77831 4.90555 7.31436 5.09798 7.77012 5.45846C8.22587 5.81893 8.5808 6.33121 8.78991 6.93036C8.99902 7.5295 9.0529 8.18854 8.94471 8.82391C8.83652 9.45929 8.57114 10.0424 8.18221 10.4993C8.9149 11.0452 9.44643 11.8976 9.67067 12.8864H9.66981ZM6.23077 9.81818C6.50462 9.81818 6.77232 9.72221 7.00002 9.5424C7.22772 9.3626 7.40519 9.10703 7.50999 8.80803C7.61479 8.50902 7.64221 8.18 7.58878 7.86258C7.53535 7.54516 7.40348 7.25358 7.20984 7.02473C7.0162 6.79589 6.76948 6.64004 6.50089 6.5769C6.23231 6.51376 5.95391 6.54616 5.7009 6.67002C5.4479 6.79387 5.23165 7.0036 5.0795 7.2727C4.92736 7.5418 4.84615 7.85818 4.84615 8.18182C4.84615 8.61581 4.99203 9.03202 5.2517 9.3389C5.51136 9.64578 5.86355 9.81818 6.23077 9.81818Z" fill="#F5F5F5"/>
</svg>