<svg width="32" height="32" viewBox="0 0 32 32" fill="none" xmlns="http://www.w3.org/2000/svg">
<path d="M25 13.6364C25 13.9498 24.8946 14.2504 24.7071 14.472C24.5196 14.6937 24.2652 14.8182 24 14.8182H19C18.7348 14.8182 18.4804 14.6937 18.2929 14.472C18.1054 14.2504 18 13.9498 18 13.6364C18 13.3229 18.1054 13.0223 18.2929 12.8007C18.4804 12.5791 18.7348 12.4545 19 12.4545H24C24.2652 12.4545 24.5196 12.5791 24.7071 12.8007C24.8946 13.0223 25 13.3229 25 13.6364ZM24 17.1818H19C18.7348 17.1818 18.4804 17.3063 18.2929 17.528C18.1054 17.7496 18 18.0502 18 18.3636C18 18.6771 18.1054 18.9777 18.2929 19.1993C18.4804 19.4209 18.7348 19.5455 19 19.5455H24C24.2652 19.5455 24.5196 19.4209 24.7071 19.1993C24.8946 18.9777 25 18.6771 25 18.3636C25 18.0502 24.8946 17.7496 24.7071 17.528C24.5196 17.3063 24.2652 17.1818 24 17.1818ZM29 5.36364V26.6364C29 27.2632 28.7893 27.8644 28.4142 28.3077C28.0391 28.751 27.5304 29 27 29H5C4.46957 29 3.96086 28.751 3.58579 28.3077C3.21071 27.8644 3 27.2632 3 26.6364V5.36364C3 4.73676 3.21071 4.13556 3.58579 3.69229C3.96086 3.24903 4.46957 3 5 3H27C27.5304 3 28.0391 3.24903 28.4142 3.69229C28.7893 4.13556 29 4.73676 29 5.36364ZM27 26.6364V5.36364H5V26.6364H27ZM16.9675 21.6136C17.0338 21.9173 16.9953 22.2396 16.8605 22.5097C16.7257 22.7798 16.5057 22.9756 16.2488 23.054C15.9918 23.1323 15.7191 23.0869 15.4905 22.9276C15.262 22.7683 15.0963 22.5082 15.03 22.2045C14.7013 20.6889 13.3975 19.5455 11.9987 19.5455C10.6 19.5455 9.2975 20.6889 8.9675 22.2045C8.9012 22.5082 8.73554 22.7683 8.50698 22.9276C8.27842 23.0869 8.00568 23.1323 7.74875 23.054C7.49182 22.9756 7.27176 22.7798 7.13696 22.5097C7.00217 22.2396 6.9637 21.9173 7.03 21.6136C7.3545 20.1862 8.12157 18.9554 9.17875 18.1657C8.61696 17.5057 8.23363 16.6634 8.07736 15.7457C7.92109 14.8279 7.99891 13.8759 8.30096 13.0105C8.60301 12.1451 9.11568 11.4051 9.774 10.8844C10.4323 10.3638 11.2066 10.0858 11.9987 10.0858C12.7909 10.0858 13.5652 10.3638 14.2235 10.8844C14.8818 11.4051 15.3945 12.1451 15.6965 13.0105C15.9986 13.8759 16.0764 14.8279 15.9201 15.7457C15.7639 16.6634 15.3805 17.5057 14.8188 18.1657C15.8771 18.9542 16.6448 20.1855 16.9688 21.6136H16.9675ZM12 17.1818C12.3956 17.1818 12.7822 17.0432 13.1111 16.7835C13.44 16.5238 13.6964 16.1546 13.8478 15.7227C13.9991 15.2908 14.0387 14.8156 13.9616 14.3571C13.8844 13.8986 13.6939 13.4774 13.4142 13.1468C13.1345 12.8163 12.7781 12.5912 12.3902 12.5C12.0022 12.4088 11.6001 12.4556 11.2346 12.6345C10.8692 12.8134 10.5568 13.1163 10.3371 13.505C10.1173 13.8937 10 14.3507 10 14.8182C10 15.4451 10.2107 16.0463 10.5858 16.4895C10.9609 16.9328 11.4696 17.1818 12 17.1818Z" fill="black"/>
</svg>
