<svg width="32" height="32" viewBox="0 0 32 32" fill="none" xmlns="http://www.w3.org/2000/svg">
<path d="M27 3H5C4.46957 3 3.96086 3.24903 3.58579 3.69229C3.21071 4.13556 3 4.73676 3 5.36364V26.6364C3 27.2632 3.21071 27.8644 3.58579 28.3077C3.96086 28.751 4.46957 29 5 29H27C27.5304 29 28.0391 28.751 28.4142 28.3077C28.7893 27.8644 29 27.2632 29 26.6364V5.36364C29 4.73676 28.7893 4.13556 28.4142 3.69229C28.0391 3.24903 27.5304 3 27 3ZM27 5.36364V20.5426L23.7412 16.6928C23.5555 16.4733 23.335 16.2991 23.0923 16.1803C22.8497 16.0615 22.5896 16.0004 22.3269 16.0004C22.0642 16.0004 21.8041 16.0615 21.5614 16.1803C21.3187 16.2991 21.0982 16.4733 20.9125 16.6928L18.4125 19.6474L12.9125 13.1474C12.5375 12.7045 12.029 12.4556 11.4987 12.4556C10.9685 12.4556 10.46 12.7045 10.085 13.1474L5 19.1569V5.36364H27ZM5 22.5L11.5 14.8182L21.5 26.6364H5V22.5ZM27 26.6364H24.3288L19.8288 21.3182L22.3288 18.3636L27 23.8857V26.6364ZM18 11.8636C18 11.513 18.088 11.1703 18.2528 10.8788C18.4176 10.5872 18.6519 10.36 18.926 10.2258C19.2001 10.0917 19.5017 10.0566 19.7926 10.125C20.0836 10.1934 20.3509 10.3622 20.5607 10.6101C20.7704 10.858 20.9133 11.1739 20.9712 11.5178C21.0291 11.8617 20.9993 12.2181 20.8858 12.542C20.7723 12.866 20.58 13.1428 20.3334 13.3376C20.0867 13.5324 19.7967 13.6364 19.5 13.6364C19.1022 13.6364 18.7206 13.4496 18.4393 13.1171C18.158 12.7847 18 12.3338 18 11.8636Z" fill="black"/>
</svg>
