<svg width="32" height="32" viewBox="0 0 32 32" fill="none" xmlns="http://www.w3.org/2000/svg">
<path d="M26.8333 11.6667H22.5V8.77778C22.5 7.24542 21.8152 5.77582 20.5962 4.69227C19.3772 3.60873 17.7239 3 16 3C14.2761 3 12.6228 3.60873 11.4038 4.69227C10.1848 5.77582 9.5 7.24542 9.5 8.77778V11.6667H5.16667C4.59203 11.6667 4.04093 11.8696 3.6346 12.2308C3.22827 12.5919 3 13.0818 3 13.5926V27.0741C3 27.5849 3.22827 28.0747 3.6346 28.4359C4.04093 28.7971 4.59203 29 5.16667 29H26.8333C27.408 29 27.9591 28.7971 28.3654 28.4359C28.7717 28.0747 29 27.5849 29 27.0741V13.5926C29 13.0818 28.7717 12.5919 28.3654 12.2308C27.9591 11.8696 27.408 11.6667 26.8333 11.6667ZM11.6667 8.77778C11.6667 7.7562 12.1232 6.77647 12.9359 6.05411C13.7485 5.33174 14.8507 4.92593 16 4.92593C17.1493 4.92593 18.2515 5.33174 19.0641 6.05411C19.8768 6.77647 20.3333 7.7562 20.3333 8.77778V11.6667H11.6667V8.77778ZM26.8333 27.0741H5.16667V13.5926H26.8333V27.0741ZM17.625 20.3333C17.625 20.619 17.5297 20.8983 17.3511 21.1358C17.1726 21.3734 16.9188 21.5585 16.6219 21.6678C16.3249 21.7772 15.9982 21.8058 15.683 21.75C15.3678 21.6943 15.0782 21.5567 14.851 21.3547C14.6237 21.1527 14.4689 20.8953 14.4062 20.6151C14.3435 20.3349 14.3757 20.0445 14.4987 19.7806C14.6217 19.5166 14.83 19.291 15.0972 19.1323C15.3644 18.9736 15.6786 18.8889 16 18.8889C16.431 18.8889 16.8443 19.0411 17.149 19.312C17.4538 19.5828 17.625 19.9502 17.625 20.3333Z" fill="black"/>
</svg>
