<svg width="32" height="32" viewBox="0 0 32 32" fill="none" xmlns="http://www.w3.org/2000/svg">
<path d="M16 8.57148C14.8313 8.57148 13.6888 8.84379 12.7171 9.35395C11.7453 9.86412 10.988 10.5892 10.5407 11.4376C10.0935 12.286 9.97645 13.2195 10.2044 14.1202C10.4325 15.0208 10.9952 15.8481 11.8216 16.4974C12.648 17.1467 13.7009 17.5889 14.8472 17.7681C15.9934 17.9472 17.1816 17.8553 18.2613 17.5039C19.3411 17.1525 20.2639 16.5574 20.9132 15.7938C21.5625 15.0303 21.9091 14.1327 21.9091 13.2144C21.9091 11.983 21.2865 10.8021 20.1784 9.93136C19.0702 9.06065 17.5672 8.57148 16 8.57148ZM16 16.0001C15.2988 16.0001 14.6133 15.8367 14.0303 15.5306C13.4472 15.2245 12.9928 14.7895 12.7244 14.2804C12.4561 13.7714 12.3859 13.2113 12.5227 12.6709C12.6595 12.1305 12.9971 11.6342 13.493 11.2446C13.9888 10.855 14.6206 10.5897 15.3083 10.4822C15.9961 10.3747 16.7089 10.4299 17.3568 10.6407C18.0046 10.8515 18.5584 11.2086 18.9479 11.6667C19.3375 12.1248 19.5455 12.6634 19.5455 13.2144C19.5455 13.9532 19.1719 14.6618 18.507 15.1842C17.8421 15.7066 16.9403 16.0001 16 16.0001ZM16 3C12.5534 3.00307 9.24906 4.08021 6.81193 5.99512C4.3748 7.91002 3.00391 10.5063 3 13.2144C3 16.8591 5.14352 20.722 9.20455 24.3864C11.0293 26.0422 13.0831 27.5333 15.3278 28.832C15.5266 28.9413 15.7633 29 16.0059 29C16.2485 29 16.4853 28.9413 16.684 28.832C18.9246 27.5327 20.9744 26.0417 22.7955 24.3864C26.8506 20.722 29 16.8591 29 13.2144C28.9961 10.5063 27.6252 7.91002 25.1881 5.99512C22.7509 4.08021 19.4466 3.00307 16 3ZM16 26.911C13.5581 25.402 5.36364 19.8595 5.36364 13.2144C5.36364 10.9979 6.48425 8.87222 8.47895 7.30494C10.4737 5.73765 13.1791 4.85716 16 4.85716C18.8209 4.85716 21.5263 5.73765 23.521 7.30494C25.5157 8.87222 26.6364 10.9979 26.6364 13.2144C26.6364 19.8572 18.4419 25.402 16 26.911Z" fill="black"/>
</svg>
