<svg xmlns="http://www.w3.org/2000/svg" width="18" height="18" viewBox="0 0 18 18" fill="none">
  <path d="M9 3.85718C8.19089 3.85718 7.39996 4.0457 6.72721 4.39889C6.05447 4.75209 5.53012 5.25409 5.22049 5.84143C4.91086 6.42877 4.82985 7.07507 4.9877 7.69858C5.14555 8.3221 5.53517 8.89483 6.10729 9.34437C6.67941 9.7939 7.40834 10.1 8.2019 10.2241C8.99546 10.3481 9.81801 10.2844 10.5655 10.0411C11.313 9.79786 11.952 9.38587 12.4015 8.85728C12.851 8.32869 13.0909 7.70723 13.0909 7.0715C13.0909 6.21901 12.6599 5.40143 11.8927 4.79863C11.1255 4.19583 10.085 3.85718 9 3.85718ZM9 9.00009C8.51454 9.00009 8.03998 8.88698 7.63633 8.67506C7.23268 8.46315 6.91807 8.16194 6.7323 7.80954C6.54652 7.45714 6.49791 7.06936 6.59262 6.69525C6.68733 6.32114 6.9211 5.9775 7.26437 5.70778C7.60765 5.43806 8.04501 5.25438 8.52114 5.17997C8.99728 5.10555 9.4908 5.14374 9.93931 5.28971C10.3878 5.43568 10.7712 5.68288 11.0409 6.00003C11.3106 6.31719 11.4545 6.69006 11.4545 7.0715C11.4545 7.58299 11.1959 8.07354 10.7356 8.43522C10.2753 8.7969 9.65099 9.00009 9 9.00009ZM9 0C6.61388 0.00212686 4.32627 0.747841 2.63903 2.07354C0.951787 3.39925 0.00270689 5.19667 0 7.0715C0 9.59474 1.48398 12.2691 4.29545 14.806C5.55875 15.9523 6.98058 16.9846 8.53466 17.8837C8.67223 17.9594 8.83612 18 9.00409 18C9.17206 18 9.33595 17.9594 9.47352 17.8837C11.0247 16.9842 12.4438 15.9519 13.7045 14.806C16.5119 12.2691 18 9.59474 18 7.0715C17.9973 5.19667 17.0482 3.39925 15.361 2.07354C13.6737 0.747841 11.3861 0.00212686 9 0ZM9 16.5537C7.30943 15.5091 1.63636 11.672 1.63636 7.0715C1.63636 5.53702 2.41217 4.06538 3.79312 2.98034C5.17407 1.8953 7.04704 1.28573 9 1.28573C10.953 1.28573 12.8259 1.8953 14.2069 2.98034C15.5878 4.06538 16.3636 5.53702 16.3636 7.0715C16.3636 11.6704 10.6906 15.5091 9 16.5537Z" fill="#F5F5F5"/>
</svg>