<svg width="32" height="32" viewBox="0 0 32 32" fill="none" xmlns="http://www.w3.org/2000/svg">
<path d="M27.7483 20.4797L21.6239 17.7354L21.607 17.7276C21.2891 17.5916 20.9423 17.537 20.5979 17.5688C20.2536 17.6006 19.9226 17.7177 19.6349 17.9096C19.6011 17.932 19.5685 17.9563 19.5374 17.9824L16.3732 20.6799C14.3686 19.7062 12.299 17.6522 11.3253 15.6736L14.0267 12.4612C14.0527 12.4287 14.0774 12.3962 14.1008 12.3611C14.2885 12.0742 14.4025 11.7453 14.4324 11.4038C14.4623 11.0622 14.4074 10.7185 14.2724 10.4033V10.3877L11.5203 4.25295C11.3418 3.84119 11.035 3.49818 10.6456 3.27513C10.2562 3.05208 9.80511 2.96095 9.35966 3.01534C7.59811 3.24714 5.98117 4.11225 4.81084 5.44908C3.64051 6.78592 2.99683 8.50307 3.00001 10.2798C3.00001 20.6019 11.3981 29 21.7201 29C23.4969 29.0032 25.214 28.3595 26.5509 27.1892C27.8877 26.0188 28.7528 24.4019 28.9846 22.6403C29.0391 22.195 28.9481 21.744 28.7253 21.3547C28.5025 20.9653 28.1598 20.6584 27.7483 20.4797ZM21.7201 26.92C17.3084 26.9152 13.0787 25.1604 9.95912 22.0409C6.83954 18.9213 5.08484 14.6916 5.08003 10.2798C5.07514 9.01033 5.5325 7.78248 6.36669 6.82555C7.20089 5.86863 8.35488 5.24806 9.61316 5.07976C9.61265 5.08494 9.61265 5.09017 9.61316 5.09536L12.3432 11.2054L9.65606 14.4216C9.62878 14.453 9.60401 14.4865 9.58196 14.5217C9.38633 14.8219 9.27156 15.1676 9.24879 15.5252C9.22601 15.8828 9.29599 16.2402 9.45196 16.5628C10.6298 18.9717 13.0569 21.3806 15.4918 22.5571C15.8168 22.7116 16.1762 22.7792 16.5351 22.7532C16.894 22.7272 17.24 22.6086 17.5393 22.4089C17.5727 22.3864 17.6048 22.3621 17.6355 22.3361L20.7958 19.6399L26.9059 22.3764C26.9059 22.3764 26.9163 22.3764 26.9202 22.3764C26.7539 23.6365 26.1343 24.7928 25.1772 25.6291C24.2201 26.4653 22.9911 26.9243 21.7201 26.92Z" fill="black"/>
</svg>
