<svg width="32" height="32" viewBox="0 0 32 32" fill="none" xmlns="http://www.w3.org/2000/svg">
<path d="M26.8333 3H5.16667C4.59203 3 4.04093 3.21915 3.6346 3.60923C3.22827 3.99931 3 4.52837 3 5.08003V12.7215C3 24.371 13.2673 28.236 15.3229 28.8925C15.762 29.0358 16.238 29.0358 16.6771 28.8925C18.7354 28.236 29 24.371 29 12.7215V5.08003C29 4.52837 28.7717 3.99931 28.3654 3.60923C27.9591 3.21915 27.408 3 26.8333 3ZM26.8333 12.7228C26.8333 22.9176 17.8484 26.3237 16 26.9165C14.1678 26.3302 5.16667 22.9267 5.16667 12.7228V5.08003H26.8333V12.7228ZM9.81687 16.216C9.6136 16.0209 9.4994 15.7562 9.4994 15.4802C9.4994 15.2042 9.6136 14.9395 9.81687 14.7444C10.0202 14.5492 10.2959 14.4396 10.5833 14.4396C10.8708 14.4396 11.1465 14.5492 11.3498 14.7444L13.8333 17.1286L20.6502 10.5843C20.7509 10.4877 20.8704 10.411 21.0019 10.3587C21.1334 10.3064 21.2743 10.2795 21.4167 10.2795C21.559 10.2795 21.7 10.3064 21.8315 10.3587C21.963 10.411 22.0825 10.4877 22.1831 10.5843C22.2838 10.6809 22.3636 10.7957 22.4181 10.9219C22.4726 11.0482 22.5006 11.1835 22.5006 11.3201C22.5006 11.4568 22.4726 11.5921 22.4181 11.7183C22.3636 11.8446 22.2838 11.9593 22.1831 12.0559L14.5998 19.3361C14.4992 19.4327 14.3797 19.5095 14.2482 19.5618C14.1167 19.6141 13.9757 19.6411 13.8333 19.6411C13.691 19.6411 13.55 19.6141 13.4185 19.5618C13.287 19.5095 13.1675 19.4327 13.0669 19.3361L9.81687 16.216Z" fill="black"/>
</svg>
