<svg width="32" height="32" viewBox="0 0 32 32" fill="none" xmlns="http://www.w3.org/2000/svg">
<path d="M29 16.6846C29 17.0475 28.8859 17.3955 28.6827 17.6522C28.4796 17.9088 28.204 18.053 27.9167 18.053H13.8338C13.5465 18.053 13.271 17.9088 13.0678 17.6522C12.8647 17.3955 12.7505 17.0475 12.7505 16.6846C12.7505 16.3217 12.8647 15.9736 13.0678 15.717C13.271 15.4604 13.5465 15.3162 13.8338 15.3162H27.9167C28.204 15.3162 28.4796 15.4604 28.6827 15.717C28.8859 15.9736 29 16.3217 29 16.6846ZM13.8338 7.1059H27.9167C28.204 7.1059 28.4796 6.96174 28.6827 6.70511C28.8859 6.44849 29 6.10044 29 5.73752C29 5.37461 28.8859 5.02655 28.6827 4.76993C28.4796 4.51331 28.204 4.36914 27.9167 4.36914H13.8338C13.5465 4.36914 13.271 4.51331 13.0678 4.76993C12.8647 5.02655 12.7505 5.37461 12.7505 5.73752C12.7505 6.10044 12.8647 6.44849 13.0678 6.70511C13.271 6.96174 13.5465 7.1059 13.8338 7.1059ZM27.9167 26.2632H4.08415C3.79684 26.2632 3.5213 26.4074 3.31814 26.664C3.11499 26.9206 3.00085 27.2687 3.00085 27.6316C3.00085 27.9945 3.11499 28.3426 3.31814 28.5992C3.5213 28.8558 3.79684 29 4.08415 29H27.9167C28.204 29 28.4796 28.8558 28.6827 28.5992C28.8859 28.3426 29 27.9945 29 27.6316C29 27.2687 28.8859 26.9206 28.6827 26.664C28.4796 26.4074 28.204 26.2632 27.9167 26.2632ZM3.31772 19.0211C3.41833 19.1483 3.5378 19.2492 3.66931 19.3181C3.80082 19.387 3.94179 19.4224 4.08415 19.4224C4.22651 19.4224 4.36748 19.387 4.49899 19.3181C4.6305 19.2492 4.74997 19.1483 4.85058 19.0211L10.2671 12.1792C10.3678 12.0521 10.4477 11.9012 10.5022 11.7351C10.5567 11.5689 10.5848 11.3909 10.5848 11.211C10.5848 11.0312 10.5567 10.8532 10.5022 10.687C10.4477 10.5209 10.3678 10.37 10.2671 10.2429L4.85058 3.40101C4.64731 3.14425 4.37162 3 4.08415 3C3.79668 3 3.52099 3.14425 3.31772 3.40101C3.11445 3.65778 3.00025 4.00602 3.00025 4.36914C3.00025 4.73226 3.11445 5.08051 3.31772 5.33727L7.96913 11.211L3.31772 17.0848C3.217 17.2119 3.13709 17.3628 3.08258 17.5289C3.02806 17.6951 3 17.8731 3 18.053C3 18.2328 3.02806 18.4108 3.08258 18.577C3.13709 18.7431 3.217 18.894 3.31772 19.0211Z" fill="black"/>
</svg>
